<svg width="46" height="46" viewBox="0 0 46 46" fill="none" xmlns="http://www.w3.org/2000/svg">
<g id="quality 1" clip-path="url(#clip0_90_347)">
<g id="XMLID_1364_">
<g id="XMLID_141_">
<path id="XMLID_162_" d="M40.9857 39.6269L35.293 29.7668C36.2372 28.9717 36.8897 27.8409 37.064 26.5596C37.1824 25.6883 37.6306 24.912 38.3259 24.3737C40.1284 22.9785 40.7843 20.5307 39.921 18.421C39.5879 17.6072 39.5879 16.7108 39.921 15.8971C40.7843 13.7874 40.1284 11.3396 38.3259 9.9443C37.6306 9.40607 37.1823 8.62979 37.064 7.75848C36.7568 5.49988 34.9648 3.70786 32.7062 3.40082C31.835 3.28232 31.0587 2.83419 30.5205 2.13887C29.1252 0.336306 26.6776 -0.319546 24.5677 0.54376C23.7539 0.876828 22.8575 0.876828 22.0438 0.54376C19.9343 -0.319633 17.4863 0.336306 16.091 2.13887C15.5528 2.83419 14.7765 3.28232 13.9052 3.40082C11.6465 3.70795 9.85457 5.49988 9.54753 7.75857C9.42903 8.62987 8.9809 9.40615 8.28558 9.94439C6.48302 11.3397 5.82716 13.7876 6.69047 15.8972C7.02354 16.7109 7.02354 17.6073 6.69047 18.4211C5.82708 20.5307 6.48302 22.9785 8.28558 24.3738C8.9809 24.9121 9.42903 25.6884 9.54753 26.5596C9.72404 27.8578 10.3918 29.0012 11.356 29.7977L5.68107 39.6269C5.50333 39.9348 5.52847 40.3194 5.74497 40.6014C5.96139 40.8834 6.32628 41.0075 6.6699 40.9154L11.6163 39.59L12.936 44.5152C13.0281 44.8586 13.3179 45.1128 13.6704 45.1592C13.7089 45.1643 13.7473 45.1667 13.7854 45.1667C14.0964 45.1667 14.388 45.0015 14.5464 44.7272L20.6699 34.121C21.1342 34.071 21.5966 33.9573 22.0437 33.7743C22.8575 33.4412 23.754 33.4412 24.5676 33.7743C25.0337 33.9651 25.5165 34.0814 26.0008 34.1278L32.1203 44.7272C32.2787 45.0016 32.5703 45.1667 32.8813 45.1667C32.9194 45.1667 32.9578 45.1643 32.9964 45.1592C33.3489 45.1128 33.6387 44.8586 33.7307 44.5152L35.0505 39.59L39.9969 40.9154C40.3401 41.0075 40.7054 40.8836 40.9218 40.6014C41.1382 40.3194 41.1634 39.9348 40.9857 39.6269ZM14.0849 42.0104L13.0869 38.286C13.0265 38.0608 12.8793 37.8688 12.6773 37.7522C12.4754 37.6357 12.2356 37.6041 12.0103 37.6644L8.26465 38.668L12.8834 30.6681C13.21 30.7849 13.5518 30.8692 13.9051 30.9173C14.7764 31.0358 15.5527 31.484 16.0909 32.1793C16.774 33.0617 17.7096 33.6687 18.7341 33.9577L14.0849 42.0104ZM21.3777 32.1473C19.9968 32.7125 18.3945 32.2831 17.4811 31.1032C16.6589 30.041 15.473 29.3562 14.1419 29.1753C12.6635 28.9743 11.4904 27.8013 11.2894 26.3228C11.1084 24.9917 10.4238 23.8059 9.36152 22.9835C8.18158 22.0702 7.75226 20.4678 8.3174 19.0869C8.82627 17.8437 8.82627 16.4744 8.3174 15.2312C7.75226 13.8503 8.18158 12.2479 9.36152 11.3346C10.4238 10.5123 11.1084 9.32651 11.2894 7.99538C11.4905 6.51692 12.6635 5.34385 14.1419 5.14281C15.473 4.9619 16.6589 4.27722 17.4811 3.21499C18.1253 2.3828 19.1118 1.92403 20.122 1.92403C20.5442 1.92403 20.9706 2.00428 21.3776 2.17086C22.621 2.67965 23.9903 2.67965 25.2335 2.17086C26.6143 1.60564 28.2168 2.03505 29.1301 3.21499C29.9523 4.27722 31.1382 4.9619 32.4691 5.14281C33.9476 5.34385 35.1206 6.51684 35.3217 7.99538C35.5027 9.32651 36.1874 10.5123 37.2496 11.3346C38.4295 12.2479 38.8588 13.8502 38.2937 15.2312C37.7849 16.4744 37.7849 17.8437 38.2937 19.0869C38.8588 20.4678 38.4294 22.0702 37.2496 22.9835C36.1874 23.8058 35.5027 24.9916 35.3217 26.3227C35.1206 27.8012 33.9476 28.9743 32.4692 29.1752C31.1381 29.3561 29.9522 30.0408 29.13 31.1032C28.2166 32.2832 26.6143 32.7124 25.2335 32.1472C23.9902 31.6385 22.621 31.6385 21.3777 32.1473ZM34.6563 37.6644C34.1872 37.5386 33.7055 37.8171 33.5798 38.286L32.5817 42.0104L27.9246 33.9439C28.9304 33.6496 29.8478 33.0481 30.5205 32.1793C31.0586 31.4839 31.8349 31.0357 32.7061 30.9173C33.0759 30.867 33.433 30.7762 33.7733 30.6508L38.4019 38.668L34.6563 37.6644Z" fill="#2C2C2C"/>
<path id="XMLID_1190_" d="M19.311 13.9074L16.576 16.6423C16.4112 16.8071 16.3185 17.0308 16.3185 17.2639C16.3185 17.497 16.4112 17.7206 16.576 17.8855L21.7055 23.015C21.8703 23.1798 22.0939 23.2725 22.327 23.2725C22.5602 23.2725 22.7838 23.1798 22.9486 23.015L30.0908 15.8728C30.4341 15.5295 30.4341 14.9729 30.0908 14.6297L27.3559 11.8947C27.191 11.7299 26.9675 11.6372 26.7344 11.6372C26.5013 11.6372 26.2776 11.7299 26.1128 11.8947L22.3271 15.6805L20.5543 13.9075C20.3895 13.7427 20.1658 13.6501 19.9327 13.6501C19.6994 13.65 19.4758 13.7426 19.311 13.9074ZM21.7054 17.5452C21.8702 17.71 22.0938 17.8026 22.327 17.8026C22.5601 17.8026 22.7837 17.71 22.9485 17.5452L26.7342 13.7594L28.226 15.2512L22.327 21.1503L18.4407 17.264L19.9325 15.7722L21.7054 17.5452Z" fill="#2C2C2C"/>
<path id="XMLID_1191_" d="M34.7609 17.4548C34.7609 15.1197 34.0611 12.8739 32.7372 10.9603C31.4444 9.09169 29.6486 7.66281 27.544 6.82825C27.0926 6.64936 26.5818 6.87009 26.4029 7.32139C26.2239 7.77269 26.4447 8.28359 26.8959 8.46256C30.6057 9.93363 33.0029 13.4633 33.0029 17.4548C33.0029 22.7865 28.6652 27.1242 23.3334 27.1242C18.0017 27.1242 13.664 22.7865 13.664 17.4548C13.664 13.4632 16.0611 9.93354 19.771 8.46247C20.2223 8.2835 20.4431 7.7726 20.2641 7.3213C20.0851 6.87 19.5741 6.64919 19.1229 6.82816C17.0182 7.66281 15.2224 9.0916 13.9296 10.9602C12.6057 12.8738 11.9059 15.1196 11.9059 17.4547C11.9059 23.7558 17.0323 28.8822 23.3334 28.8822C29.6346 28.8823 34.7609 23.7559 34.7609 17.4548Z" fill="#2C2C2C"/>
<path id="XMLID_1218_" d="M23.3333 7.78518C23.5645 7.78518 23.7913 7.692 23.9547 7.52762C24.1182 7.36412 24.2124 7.13821 24.2124 6.90614C24.2124 6.67495 24.1183 6.44816 23.9547 6.28466C23.7913 6.12116 23.5645 6.0271 23.3333 6.0271C23.1021 6.0271 22.8753 6.12116 22.7118 6.28466C22.5483 6.44816 22.4543 6.67495 22.4543 6.90614C22.4543 7.13821 22.5483 7.36412 22.7118 7.52762C22.8753 7.692 23.1021 7.78518 23.3333 7.78518Z" fill="#2C2C2C"/>
</g>
</g>
</g>
<defs>
<clipPath id="clip0_90_347">
<rect width="45" height="45" fill="white" transform="translate(0.833344 0.166779)"/>
</clipPath>
</defs>
</svg>
